<svg xmlns="http://www.w3.org/2000/svg" xmlns:xlink="http://www.w3.org/1999/xlink" width="310" height="310" viewBox="0 0 310 310">
  <defs>
    <clipPath id="clip-path">
      <rect id="Rectangle_31" data-name="Rectangle 31" width="310" height="310" transform="translate(284 895)" fill="#e6e6e6" stroke="#707070" stroke-width="1"/>
    </clipPath>
  </defs>
  <g id="icon" transform="translate(-284 -895)" clip-path="url(#clip-path)">
    <g id="question" transform="translate(277.055 888.048)">
      <path id="Path_16" data-name="Path 16" d="M126.462,194.28h-52.7A64.446,64.446,0,0,0,9.173,257.605c-1.961,10.565-4.618,29.038,1.961,35.617,17.777,17.144,58.012,23.723,88.947,23.723,31.631,0,71.17-6.579,88.947-23.723,6.579-6.579,3.986-25.052,1.961-35.617C190.421,222.621,161.446,194.28,126.462,194.28Zm54.09,89.01c-12.526,12.526-43.525,20.434-79.711,20.434-36.249,0-67.881-7.908-79.711-19.8-1.329-2.657-7.655-74.207,52.7-77.18,13.728-.7,53.394,0,53.394,0,59.151.063,54.659,74.587,53.33,76.548Z" fill="#e6e6e6"/>
      <path id="Path_17" data-name="Path 17" d="M99.449,182.386c28.974,0,52.7-23.723,52.065-52.128A51.8,51.8,0,0,0,99.449,78.129c-28.342,0-52.065,23.723-52.065,52.128A51.8,51.8,0,0,0,99.449,182.386Zm0-91.035c21.762,0,39.539,17.777,39.539,38.907s-17.777,38.907-39.539,38.907S59.91,151.387,59.91,130.258,77.75,91.351,99.449,91.351Z" fill="#e6e6e6"/>
      <path id="Path_18" data-name="Path 18" d="M160.118,6.959v95.653h20.434v46.814l46.814-46.814h89.58V6.959Zm144.3,83.127H222.684L193.71,119.124V90.086H173.276V20.181H304.42Z" fill="#e6e6e6"/>
      <path id="Path_19" data-name="Path 19" d="M237.235,38.59a3.545,3.545,0,0,1,3.29-1.961,7.138,7.138,0,0,1,2.657.633,9.9,9.9,0,0,1,1.329,3.986,5.59,5.59,0,0,1-1.329,3.986l-5.251,5.947c-1.329,1.961-2.657,3.29-3.29,4.618s-.633,3.29-.633,5.251V67H245.9V61.744c0-1.329,0-2.657.633-3.29l2.657-2.657,3.986-3.986c0-.633.633-1.329,1.329-1.961.633-.633,1.329-1.329,1.329-1.961.633,0,.633-.633,1.329-1.961.633-.633.633-2.657.633-4.618,0-4.618-1.328-8.6-4.618-11.2-3.29-2.657-7.275-3.986-12.526-3.986-4.618,0-9.236,1.329-12.526,4.618-3.29,2.657-5.251,7.275-5.947,12.526h13.159a22.355,22.355,0,0,1,1.9-4.681Z" fill="#e6e6e6"/>
      <path id="Path_20" data-name="Path 20" d="M240.525,69.589a7.313,7.313,0,0,0-5.251,1.961,7.417,7.417,0,0,0-1.961,5.251,7.313,7.313,0,0,0,1.961,5.251,6.471,6.471,0,0,0,5.251,1.961,7.313,7.313,0,0,0,5.251-1.961,7.417,7.417,0,0,0,1.961-5.251,7.313,7.313,0,0,0-1.961-5.251A7.706,7.706,0,0,0,240.525,69.589Z" fill="#e6e6e6"/>
    </g>
  </g>
</svg>
